<svg height="926" width="720" xmlns="http://www.w3.org/2000/svg">
<rect height="926" fill="#555" width="720"></rect>
<text fill="#7f7" font-family="Courier New" font-size="12" xml:space="preserve">
<tspan x="10" y="26">7 megabytes installed</tspan>
<tspan x="10" y="42"></tspan>
<tspan x="10" y="58">node_modules</tspan>
<tspan x="10" y="74">└─┬ bulkify@1.4.2 </tspan>
<tspan x="10" y="90">  ├─┬ bulk-require@1.0.0 </tspan>
<tspan x="10" y="106">  │ └─┬ glob@3.2.11 </tspan>
<tspan x="10" y="122">  │   └─┬ minimatch@0.3.0 </tspan>
<tspan x="10" y="138">  │     ├── lru-cache@2.7.3 </tspan>
<tspan x="10" y="154">  │     └── sigmund@1.0.1 </tspan>
<tspan x="10" y="170">  ├─┬ concat-stream@1.6.0 </tspan>
<tspan x="10" y="186">  │ ├── inherits@2.0.3 </tspan>
<tspan x="10" y="202">  │ ├─┬ readable-stream@2.2.9 </tspan>
<tspan x="10" y="218">  │ │ ├── buffer-shims@1.0.0 </tspan>
<tspan x="10" y="234">  │ │ ├── core-util-is@1.0.2 </tspan>
<tspan x="10" y="250">  │ │ ├── isarray@1.0.0 </tspan>
<tspan x="10" y="266">  │ │ ├── process-nextick-args@1.0.7 </tspan>
<tspan x="10" y="282">  │ │ ├── string_decoder@1.0.0 </tspan>
<tspan x="10" y="298">  │ │ └── util-deprecate@1.0.2 </tspan>
<tspan x="10" y="314">  │ └── typedarray@0.0.6 </tspan>
<tspan x="10" y="330">  ├─┬ static-module@1.3.1 </tspan>
<tspan x="10" y="346">  │ ├─┬ concat-stream@1.4.10 </tspan>
<tspan x="10" y="362">  │ │ └── readable-stream@1.1.14 </tspan>
<tspan x="10" y="378">  │ ├─┬ duplexer2@0.0.2 </tspan>
<tspan x="10" y="394">  │ │ └─┬ readable-stream@1.1.14 </tspan>
<tspan x="10" y="410">  │ │   ├── isarray@0.0.1 </tspan>
<tspan x="10" y="426">  │ │   └── string_decoder@0.10.31 </tspan>
<tspan x="10" y="442">  │ ├─┬ escodegen@1.3.3 </tspan>
<tspan x="10" y="458">  │ │ ├── esprima@1.1.1 </tspan>
<tspan x="10" y="474">  │ │ ├── estraverse@1.5.1 </tspan>
<tspan x="10" y="490">  │ │ ├── esutils@1.0.0 </tspan>
<tspan x="10" y="506">  │ │ └─┬ source-map@0.1.43 </tspan>
<tspan x="10" y="522">  │ │   └── amdefine@1.0.1 </tspan>
<tspan x="10" y="538">  │ ├─┬ falafel@1.2.0 </tspan>
<tspan x="10" y="554">  │ │ ├── acorn@1.2.2 </tspan>
<tspan x="10" y="570">  │ │ ├── foreach@2.0.5 </tspan>
<tspan x="10" y="586">  │ │ ├── isarray@0.0.1 </tspan>
<tspan x="10" y="602">  │ │ └── object-keys@1.0.11 </tspan>
<tspan x="10" y="618">  │ ├─┬ has@1.0.1 </tspan>
<tspan x="10" y="634">  │ │ └── function-bind@1.1.0 </tspan>
<tspan x="10" y="650">  │ ├── object-inspect@0.4.0 </tspan>
<tspan x="10" y="666">  │ ├─┬ quote-stream@0.0.0 </tspan>
<tspan x="10" y="682">  │ │ └── minimist@0.0.8 </tspan>
<tspan x="10" y="698">  │ ├─┬ readable-stream@1.0.34 </tspan>
<tspan x="10" y="714">  │ │ ├── isarray@0.0.1 </tspan>
<tspan x="10" y="730">  │ │ └── string_decoder@0.10.31 </tspan>
<tspan x="10" y="746">  │ ├── shallow-copy@0.0.1 </tspan>
<tspan x="10" y="762">  │ └─┬ static-eval@0.2.4 </tspan>
<tspan x="10" y="778">  │   └─┬ escodegen@0.0.28 </tspan>
<tspan x="10" y="794">  │     ├── esprima@1.0.4 </tspan>
<tspan x="10" y="810">  │     └── estraverse@1.3.2 </tspan>
<tspan x="10" y="826">  └─┬ through2@0.4.2 </tspan>
<tspan x="10" y="842">    ├─┬ readable-stream@1.0.34 </tspan>
<tspan x="10" y="858">    │ ├── isarray@0.0.1 </tspan>
<tspan x="10" y="874">    │ └── string_decoder@0.10.31 </tspan>
<tspan x="10" y="890">    └─┬ xtend@2.1.2 </tspan>
<tspan x="10" y="906">      └── object-keys@0.4.0</tspan>
</text>
</svg>
